<?xml version="1.0" encoding="UTF-8" standalone="no"?><svg xmlns="http://www.w3.org/2000/svg" xmlns:xlink="http://www.w3.org/1999/xlink" contentStyleType="text/css" height="961px" preserveAspectRatio="none" style="width:770px;height:961px;background:#FFFFFF;" version="1.1" viewBox="0 0 770 961" width="770px" zoomAndPan="magnify"><defs/><g><text fill="#888888" font-family="sans-serif" font-size="10" lengthAdjust="spacing" textLength="78" x="679" y="20.791">My super header</text><text fill="#000000" font-family="sans-serif" font-size="14" font-weight="bold" lengthAdjust="spacing" textLength="238" x="264.5" y="49.4082">Журнал посещаемости студентов</text><rect fill="#F1F1F1" height="38.6211" rx="12.5" ry="12.5" style="stroke:#181818;stroke-width:1.5;" width="245" x="10" y="469.6143"/><text fill="#000000" font-family="sans-serif" font-size="14" lengthAdjust="spacing" textLength="225" x="20" y="494.7217">Журнал посещаемости студентов</text><rect fill="#F1F1F1" height="38.6211" rx="12.5" ry="12.5" style="stroke:#181818;stroke-width:1.5;" width="38" x="305" y="220.4746"/><text fill="#000000" font-family="sans-serif" font-size="14" lengthAdjust="spacing" textLength="18" x="315" y="245.582">БД</text><rect fill="#F1F1F1" height="38.6211" rx="12.5" ry="12.5" style="stroke:#181818;stroke-width:1.5;" width="57" x="393" y="73.9219"/><text fill="#000000" font-family="sans-serif" font-size="14" lengthAdjust="spacing" textLength="37" x="403" y="99.0293">СУБД</text><rect fill="#F1F1F1" height="38.6211" rx="12.5" ry="12.5" style="stroke:#181818;stroke-width:1.5;" width="66" x="500" y="73.9219"/><text fill="#000000" font-family="sans-serif" font-size="14" lengthAdjust="spacing" textLength="46" x="510" y="99.0293">MySQL</text><path d="M450,93.2324 L460,93.2324 C475,93.2324 475,93.2324 490,93.2324 L500,93.2324 " fill="none" style="stroke:#181818;stroke-width:1.0;"/><path d="M343,239.7852 L353,239.7852 C368,239.7852 368,93.2324 383,93.2324 L393,93.2324 " fill="none" style="stroke:#181818;stroke-width:1.0;"/><rect fill="#F1F1F1" height="38.6211" rx="12.5" ry="12.5" style="stroke:#181818;stroke-width:1.5;" width="67" x="393" y="249.7852"/><text fill="#000000" font-family="sans-serif" font-size="14" lengthAdjust="spacing" textLength="47" x="403" y="274.8926">Списки</text><rect fill="#F1F1F1" height="38.6211" rx="12.5" ry="12.5" style="stroke:#181818;stroke-width:1.5;" width="85" x="510" y="132.543"/><text fill="#000000" font-family="sans-serif" font-size="14" lengthAdjust="spacing" textLength="65" x="520" y="157.6504">Студенты</text><path d="M460,269.0957 L470,269.0957 C485,269.0957 485,151.8535 500,151.8535 L510,151.8535 " fill="none" style="stroke:#181818;stroke-width:1.0;"/><rect fill="#F1F1F1" height="38.6211" rx="12.5" ry="12.5" style="stroke:#181818;stroke-width:1.5;" width="88" x="510" y="191.1641"/><text fill="#000000" font-family="sans-serif" font-size="14" lengthAdjust="spacing" textLength="68" x="520" y="216.2715">Предметы</text><path d="M460,269.0957 L470,269.0957 C485,269.0957 485,210.4746 500,210.4746 L510,210.4746 " fill="none" style="stroke:#181818;stroke-width:1.0;"/><rect fill="#F1F1F1" height="38.6211" rx="12.5" ry="12.5" style="stroke:#181818;stroke-width:1.5;" width="57" x="510" y="249.7852"/><text fill="#000000" font-family="sans-serif" font-size="14" lengthAdjust="spacing" textLength="37" x="520" y="274.8926">Темы</text><path d="M460,269.0957 L470,269.0957 C485,269.0957 485,269.0957 500,269.0957 L510,269.0957 " fill="none" style="stroke:#181818;stroke-width:1.0;"/><rect fill="#F1F1F1" height="38.6211" rx="12.5" ry="12.5" style="stroke:#181818;stroke-width:1.5;" width="119" x="510" y="308.4063"/><text fill="#000000" font-family="sans-serif" font-size="14" lengthAdjust="spacing" textLength="99" x="520" y="333.5137">Посещаемость</text><path d="M460,269.0957 L470,269.0957 C485,269.0957 485,327.7168 500,327.7168 L510,327.7168 " fill="none" style="stroke:#181818;stroke-width:1.0;"/><rect fill="#F1F1F1" height="38.6211" rx="12.5" ry="12.5" style="stroke:#181818;stroke-width:1.5;" width="149" x="510" y="367.0273"/><text fill="#000000" font-family="sans-serif" font-size="14" lengthAdjust="spacing" textLength="129" x="520" y="392.1348">Контрольные точки</text><path d="M460,269.0957 L470,269.0957 C485,269.0957 485,386.3379 500,386.3379 L510,386.3379 " fill="none" style="stroke:#181818;stroke-width:1.0;"/><path d="M343,239.7852 L353,239.7852 C368,239.7852 368,269.0957 383,269.0957 L393,269.0957 " fill="none" style="stroke:#181818;stroke-width:1.0;"/><path d="M255,488.9248 L265,488.9248 C280,488.9248 280,239.7852 295,239.7852 L305,239.7852 " fill="none" style="stroke:#181818;stroke-width:1.0;"/><rect fill="#F1F1F1" height="38.6211" rx="12.5" ry="12.5" style="stroke:#181818;stroke-width:1.5;" width="45" x="305" y="645.4775"/><text fill="#000000" font-family="sans-serif" font-size="14" lengthAdjust="spacing" textLength="25" x="315" y="670.585">App</text><rect fill="#F1F1F1" height="38.6211" rx="12.5" ry="12.5" style="stroke:#181818;stroke-width:1.5;" width="49" x="400" y="469.6143"/><text fill="#000000" font-family="sans-serif" font-size="14" lengthAdjust="spacing" textLength="29" x="410" y="494.7217">Web</text><rect fill="#F1F1F1" height="38.6211" rx="12.5" ry="12.5" style="stroke:#181818;stroke-width:1.5;" width="45" x="499" y="425.6484"/><text fill="#000000" font-family="sans-serif" font-size="14" lengthAdjust="spacing" textLength="25" x="509" y="450.7559">Vue</text><path d="M449,488.9248 L459,488.9248 C474,488.9248 474,444.959 489,444.959 L499,444.959 " fill="none" style="stroke:#181818;stroke-width:1.0;"/><rect fill="#F1F1F1" height="38.6211" rx="12.5" ry="12.5" style="stroke:#181818;stroke-width:1.5;" width="72" x="499" y="484.2695"/><text fill="#000000" font-family="sans-serif" font-size="14" lengthAdjust="spacing" textLength="52" x="509" y="509.377">ASP.Net</text><rect fill="#F1F1F1" height="38.6211" rx="12.5" ry="12.5" style="stroke:#181818;stroke-width:1.5;" width="57" x="621" y="454.959"/><text fill="#000000" font-family="sans-serif" font-size="14" lengthAdjust="spacing" textLength="37" x="631" y="480.0664">Razor</text><path d="M571,503.5801 L581,503.5801 C596,503.5801 596,474.2695 611,474.2695 L621,474.2695 " fill="none" style="stroke:#181818;stroke-width:1.0;"/><rect fill="#F1F1F1" height="38.6211" rx="12.5" ry="12.5" style="stroke:#181818;stroke-width:1.5;" width="59" x="621" y="513.5801"/><text fill="#000000" font-family="sans-serif" font-size="14" lengthAdjust="spacing" textLength="39" x="631" y="538.6875">Blazor</text><path d="M571,503.5801 L581,503.5801 C596,503.5801 596,532.8906 611,532.8906 L621,532.8906 " fill="none" style="stroke:#181818;stroke-width:1.0;"/><path d="M449,488.9248 L459,488.9248 C474,488.9248 474,503.5801 489,503.5801 L499,503.5801 " fill="none" style="stroke:#181818;stroke-width:1.0;"/><path d="M350,664.7881 L360,664.7881 C375,664.7881 375,488.9248 390,488.9248 L400,488.9248 " fill="none" style="stroke:#181818;stroke-width:1.0;"/><rect fill="#F1F1F1" height="38.6211" rx="12.5" ry="12.5" style="stroke:#181818;stroke-width:1.5;" width="72" x="400" y="630.8223"/><text fill="#000000" font-family="sans-serif" font-size="14" lengthAdjust="spacing" textLength="52" x="410" y="655.9297">Desktop</text><rect fill="#F1F1F1" height="38.6211" rx="12.5" ry="12.5" style="stroke:#181818;stroke-width:1.5;" width="51" x="522" y="572.2012"/><text fill="#000000" font-family="sans-serif" font-size="14" lengthAdjust="spacing" textLength="31" x="532" y="597.3086">WPF</text><path d="M472,650.1328 L482,650.1328 C497,650.1328 497,591.5117 512,591.5117 L522,591.5117 " fill="none" style="stroke:#181818;stroke-width:1.0;"/><rect fill="#F1F1F1" height="38.6211" rx="12.5" ry="12.5" style="stroke:#181818;stroke-width:1.5;" width="74" x="522" y="630.8223"/><text fill="#000000" font-family="sans-serif" font-size="14" lengthAdjust="spacing" textLength="54" x="532" y="655.9297">Avalonia</text><path d="M472,650.1328 L482,650.1328 C497,650.1328 497,650.1328 512,650.1328 L522,650.1328 " fill="none" style="stroke:#181818;stroke-width:1.0;"/><rect fill="#F1F1F1" height="38.6211" rx="12.5" ry="12.5" style="stroke:#181818;stroke-width:1.5;" width="72" x="522" y="689.4434"/><text fill="#000000" font-family="sans-serif" font-size="14" lengthAdjust="spacing" textLength="52" x="532" y="714.5508">Electron</text><path d="M472,650.1328 L482,650.1328 C497,650.1328 497,708.7539 512,708.7539 L522,708.7539 " fill="none" style="stroke:#181818;stroke-width:1.0;"/><path d="M350,664.7881 L360,664.7881 C375,664.7881 375,650.1328 390,650.1328 L400,650.1328 " fill="none" style="stroke:#181818;stroke-width:1.0;"/><rect fill="#F1F1F1" height="38.6211" rx="12.5" ry="12.5" style="stroke:#181818;stroke-width:1.5;" width="61" x="400" y="748.0645"/><text fill="#000000" font-family="sans-serif" font-size="14" lengthAdjust="spacing" textLength="41" x="410" y="773.1719">Mobile</text><rect fill="#F1F1F1" height="38.6211" rx="12.5" ry="12.5" style="stroke:#181818;stroke-width:1.5;" width="28" x="511" y="748.0645"/><text fill="#000000" font-family="sans-serif" font-size="14" lengthAdjust="spacing" textLength="8" x="521" y="773.1719">?</text><path d="M461,767.375 L471,767.375 C486,767.375 486,767.375 501,767.375 L511,767.375 " fill="none" style="stroke:#181818;stroke-width:1.0;"/><path d="M350,664.7881 L360,664.7881 C375,664.7881 375,767.375 390,767.375 L400,767.375 " fill="none" style="stroke:#181818;stroke-width:1.0;"/><rect fill="#F1F1F1" height="38.6211" rx="12.5" ry="12.5" style="stroke:#181818;stroke-width:1.5;" width="75" x="400" y="806.6855"/><text fill="#000000" font-family="sans-serif" font-size="14" lengthAdjust="spacing" textLength="55" x="410" y="831.793">Backend</text><rect fill="#F1F1F1" height="38.6211" rx="12.5" ry="12.5" style="stroke:#181818;stroke-width:1.5;" width="38" x="525" y="806.6855"/><text fill="#000000" font-family="sans-serif" font-size="14" lengthAdjust="spacing" textLength="18" x="535" y="831.793">C#</text><path d="M475,825.9961 L485,825.9961 C500,825.9961 500,825.9961 515,825.9961 L525,825.9961 " fill="none" style="stroke:#181818;stroke-width:1.0;"/><path d="M350,664.7881 L360,664.7881 C375,664.7881 375,825.9961 390,825.9961 L400,825.9961 " fill="none" style="stroke:#181818;stroke-width:1.0;"/><rect fill="#F1F1F1" height="38.6211" rx="12.5" ry="12.5" style="stroke:#181818;stroke-width:1.5;" width="253" x="400" y="865.3066"/><text fill="#000000" font-family="sans-serif" font-size="14" lengthAdjust="spacing" textLength="233" x="410" y="890.4141">Передача данных между модулями</text><rect fill="#F1F1F1" height="38.6211" rx="12.5" ry="12.5" style="stroke:#181818;stroke-width:1.5;" width="55" x="703" y="865.3066"/><text fill="#000000" font-family="sans-serif" font-size="14" lengthAdjust="spacing" textLength="35" x="713" y="890.4141">JSON</text><path d="M653,884.6172 L663,884.6172 C678,884.6172 678,884.6172 693,884.6172 L703,884.6172 " fill="none" style="stroke:#181818;stroke-width:1.0;"/><path d="M350,664.7881 L360,664.7881 C375,664.7881 375,884.6172 390,884.6172 L400,884.6172 " fill="none" style="stroke:#181818;stroke-width:1.0;"/><path d="M255,488.9248 L265,488.9248 C280,488.9248 280,664.7881 295,664.7881 L305,664.7881 " fill="none" style="stroke:#181818;stroke-width:1.0;"/><text fill="#000000" font-family="sans-serif" font-size="14" lengthAdjust="spacing" textLength="180" x="293.5" y="930.0352">Ментальная карта проекта</text><text fill="#888888" font-family="sans-serif" font-size="10" lengthAdjust="spacing" textLength="20" x="373.5" y="946.3398">v0.1</text><!--SRC=[xLJTQXD15BwVfpZWXMsW-MiLp8rfaYgasJOcDBsUx4xJfRkpo-vi85vLWuYqK0JnGWIfla2GheJOfAymyqQUoKw8WbVUU5DOcFDzv- -RCuUjne96mdUvuzEGF3mL8emhXKBeKIuItylRWLymtYt7fOE8-eJOD1Hkm45-bgcSgzTo8d-gIpcN4tK5SeR7kIP1tgbpkS2OcOP4kC9Z83-gCT9pdOGHSg5UoLIzGvZAMuqmTWhwK6DvOneiv7T2Sl-UcyFSz_83dcXSosyha0Dhr7tHMl5tSeeLPtAQ-UJrxuNKXM6_e8GKsLlilMQ_QWthcBzfKvV6-mb5wOfwEil9gGkPWjQgtfhsi1k6Ird7h9zbzHAM6RlTTlw0YIN8GOU-329ZrxmLW0QBpqGGPXd7xMScTKYzWBiqGtiUiqKKy6M25VHTptHukcHgr3vZtCce-WDYBfQQwqzGAxun6lWWU0Fr1lH8v0zveyRQN6W3xtU5jfbeitjuGCWfemwBY3M2E0bP10PZBsCHct61ZfCWqCUmc2yHKaN_Qb59zO-zlT_8-utytnlPrh_C8wi5GnR5UXTB-NAnl9qlRbW8cfH3yGcKIvLj_7R0wkw3Tc-IZUVj5iH14jaC73SMaTjFz2vlaYOTKkWaNBW-gy1Xo7YpiRyYO8yFNPoKZxf8isUj0nxlRDLS0LqMeHBeMQJ1JcZY2Som0yVbWmhKmrBvKOcqA1yaT835euJK0omSZIhGEVe5]--></g></svg>